<svg width="60" height="60" viewBox="0 0 60 60" fill="none" xmlns="http://www.w3.org/2000/svg">
<path d="M15.8973 19.5201L19.8823 18.3001C20.1963 18.204 20.5262 18.1708 20.8531 18.2023C21.1799 18.2337 21.4974 18.3292 21.7873 18.4834C22.0773 18.6375 22.334 18.8473 22.5429 19.1006C22.7518 19.354 22.9088 19.646 23.0048 19.9601C23.1008 20.2741 23.1341 20.604 23.1026 20.9308C23.0712 21.2577 22.9756 21.5752 22.8215 21.8651C22.6673 22.1551 22.4576 22.4118 22.2042 22.6207C21.9509 22.8296 21.6588 22.9865 21.3448 23.0826L11.7823 26.0076C11.4681 26.1036 11.1381 26.1368 10.8111 26.1052C10.484 26.0737 10.1665 25.9779 9.87646 25.8235C9.58647 25.6691 9.32975 25.4591 9.12098 25.2054C8.91222 24.9517 8.7555 24.6594 8.6598 24.3451L5.7348 14.7826C5.63877 14.4685 5.60553 14.1387 5.63698 13.8118C5.66844 13.4849 5.76396 13.1675 5.91811 12.8775C6.07225 12.5876 6.282 12.3308 6.53537 12.1219C6.78874 11.913 7.08078 11.7561 7.3948 11.6601C8.029 11.4661 8.71426 11.5321 9.29985 11.8434C9.88543 12.1547 10.3234 12.6859 10.5173 13.3201L11.6173 16.9226C17.6373 7.65007 29.5798 3.66257 40.1823 8.00757C43.3531 9.30722 46.2005 11.2859 48.5242 13.8045C50.848 16.323 52.5915 19.3202 53.6323 22.5851C53.739 22.8996 53.7819 23.2322 53.7587 23.5635C53.7354 23.8948 53.6463 24.2181 53.4967 24.5146C53.347 24.8111 53.1398 25.0748 52.8871 25.2903C52.6344 25.5058 52.3413 25.6688 52.0249 25.7698C51.7085 25.8708 51.3752 25.9077 51.0444 25.8785C50.7136 25.8492 50.3919 25.7543 50.0982 25.5993C49.8044 25.4443 49.5445 25.2323 49.3336 24.9758C49.1227 24.7192 48.965 24.4232 48.8698 24.1051C47.8136 20.7885 45.8409 17.8383 43.1795 15.5951C40.5181 13.3519 37.2765 11.9071 33.829 11.4277C30.3815 10.9483 26.8687 11.4537 23.6962 12.8856C20.5237 14.3175 17.8183 16.6175 15.8973 19.5201ZM46.7148 40.0076L42.2773 41.1151C41.956 41.2032 41.6203 41.2262 41.29 41.1827C40.9596 41.1392 40.6413 41.0302 40.3538 40.862C40.0662 40.6937 39.8151 40.4697 39.6154 40.203C39.4156 39.9364 39.2711 39.6325 39.1905 39.3092C39.1098 38.986 39.0946 38.6499 39.1457 38.3206C39.1968 37.9914 39.3132 37.6757 39.4881 37.3921C39.6629 37.1085 39.8927 36.8627 40.1639 36.6691C40.4351 36.4756 40.7423 36.3382 41.0673 36.2651L50.1748 33.9926C50.6493 33.7668 51.1831 33.6968 51.6998 33.7926C52.1977 33.8581 52.6642 34.0719 53.0388 34.4064C53.4134 34.7408 53.6786 35.1803 53.7998 35.6676L56.2198 45.3676C56.3632 46.0047 56.2516 46.6726 55.9088 47.2284C55.5661 47.7843 55.0195 48.184 54.3859 48.3421C53.7524 48.5001 53.0821 48.404 52.5184 48.0743C51.9548 47.7445 51.5425 47.2073 51.3698 46.5776L50.5448 43.2726C48.1377 46.7365 44.8409 49.4871 41.0018 51.2346C37.1627 52.9822 32.9233 53.6619 28.7302 53.2023C24.5372 52.7426 20.5457 51.1606 17.1763 48.6229C13.8069 46.0852 11.1843 42.6857 9.5848 38.7826L8.9348 37.1976C8.81037 36.8937 8.74701 36.5683 8.74833 36.24C8.74965 35.9117 8.81563 35.5868 8.9425 35.284C9.06937 34.9812 9.25464 34.7063 9.48774 34.475C9.72084 34.2438 9.9972 34.0608 10.301 33.9363C10.9147 33.685 11.603 33.6878 12.2146 33.944C12.5175 34.0709 12.7923 34.2562 13.0236 34.4893C13.2548 34.7224 13.4379 34.9987 13.5623 35.3026L14.2123 36.8851C15.4867 39.9946 17.586 42.6971 20.2838 44.7009C22.9816 46.7048 26.1754 47.9338 29.5206 48.2554C32.8657 48.577 36.2352 47.979 39.2653 46.5259C42.2955 45.0729 44.8713 42.8174 46.7148 40.0076Z" fill="black"/>
</svg>
