<svg width="36" height="36" viewBox="0 0 36 36" fill="none" xmlns="http://www.w3.org/2000/svg">
<g id="material-symbols-light:arrow-circle-up" clip-path="url(#clip0_889_28)">
<path id="Vector" d="M11.23 17L11.23 19.04L21.054 19.04L16.854 23.24L18.23 24.616L24.808 18.038L18.23 11.424L16.854 12.8L21.054 17L11.23 17ZM-7.87067e-07 18.006C-6.78313e-07 15.518 0.472 13.178 1.416 10.986C2.36133 8.79533 3.644 6.88933 5.264 5.268C6.88267 3.64666 8.78667 2.36333 10.976 1.418C13.1653 0.472666 15.5047 -8.9588e-07 17.994 -7.87067e-07C20.482 -6.78313e-07 22.822 0.471999 25.014 1.416C27.2047 2.36133 29.1107 3.644 30.732 5.264C32.3533 6.88267 33.6367 8.78666 34.582 10.976C35.5273 13.1653 36 15.5047 36 17.994C36 20.482 35.528 22.822 34.584 25.014C33.6387 27.2047 32.356 29.1107 30.736 30.732C29.1173 32.3533 27.2133 33.6367 25.024 34.582C22.8347 35.5273 20.4953 36 18.006 36C15.518 36 13.178 35.528 10.986 34.584C8.79533 33.6387 6.88933 32.356 5.268 30.736C3.64667 29.1173 2.36333 27.2133 1.418 25.024C0.472667 22.8347 -8.95879e-07 20.4953 -7.87067e-07 18.006Z" fill="#1D63B7"/>
</g>
<defs>
<clipPath id="clip0_889_28">
<rect width="36" height="36" fill="white" transform="translate(36) rotate(90)"/>
</clipPath>
</defs>
</svg>
