<svg width="50" height="42" viewBox="0 0 50 42" fill="none" xmlns="http://www.w3.org/2000/svg">
<g id="mingcute:check-fill">
<path id="Vector" fill-rule="evenodd" clip-rule="evenodd" d="M43.1871 8.80096C43.7076 9.31339 44 10.0083 44 10.7329C44 11.4574 43.7076 12.1523 43.1871 12.6648L22.3762 33.1461C22.1012 33.4168 21.7747 33.6315 21.4153 33.7781C21.0559 33.9246 20.6708 34 20.2818 34C19.8928 34 19.5076 33.9246 19.1483 33.7781C18.7889 33.6315 18.4624 33.4168 18.1874 33.1461L7.84764 22.9719C7.58245 22.7198 7.37093 22.4183 7.22542 22.0849C7.0799 21.7516 7.00331 21.393 7.0001 21.0302C6.9969 20.6673 7.06715 20.3075 7.20676 19.9717C7.34636 19.6359 7.55253 19.3308 7.81322 19.0742C8.07392 18.8177 8.38392 18.6148 8.72514 18.4774C9.06636 18.34 9.43197 18.2708 9.80064 18.274C10.1693 18.2771 10.5336 18.3525 10.8724 18.4957C11.2111 18.6389 11.5175 18.8471 11.7736 19.1081L20.2809 27.4806L39.2592 8.80096C39.5171 8.54704 39.8232 8.3456 40.1602 8.20817C40.4972 8.07074 40.8584 8 41.2232 8C41.5879 8 41.9491 8.07074 42.2861 8.20817C42.6231 8.3456 42.9292 8.54704 43.1871 8.80096Z" fill="#21CD05"/>
</g>
</svg>
