<svg width="188" height="188" viewBox="0 0 188 188" fill="none" xmlns="http://www.w3.org/2000/svg">
<g id="octicon:check-circle-16">
<g clip-path="url(#clip0_336_108)">
<rect width="188" height="188" rx="94" fill="white"/>
<path id="Vector" d="M0 94C0 69.0696 9.90354 45.1604 27.532 27.532C45.1604 9.90354 69.0696 0 94 0C118.93 0 142.84 9.90354 160.468 27.532C178.096 45.1604 188 69.0696 188 94C188 118.93 178.096 142.84 160.468 160.468C142.84 178.096 118.93 188 94 188C69.0696 188 45.1604 178.096 27.532 160.468C9.90354 142.84 0 118.93 0 94ZM17.625 94C17.625 114.256 25.6716 133.682 39.9947 148.005C54.3178 162.328 73.7441 170.375 94 170.375C114.256 170.375 133.682 162.328 148.005 148.005C162.328 133.682 170.375 114.256 170.375 94C170.375 73.7441 162.328 54.3178 148.005 39.9947C133.682 25.6716 114.256 17.625 94 17.625C73.7441 17.625 54.3178 25.6716 39.9947 39.9947C25.6716 54.3178 17.625 73.7441 17.625 94ZM138.415 73.79L85.54 126.665C83.8877 128.315 81.6478 129.242 79.3125 129.242C76.9772 129.242 74.7373 128.315 73.085 126.665L49.585 103.165C48.0292 101.493 47.182 99.2838 47.2214 97.0006C47.2609 94.7174 48.1839 92.5383 49.7965 90.9215C51.4133 89.3089 53.5924 88.3859 55.8756 88.3464C58.1588 88.307 60.3684 89.1542 62.04 90.71L79.3125 107.982L125.96 61.335C127.632 59.7792 129.841 58.932 132.124 58.9714C134.408 59.0109 136.587 59.9339 138.204 61.5465C139.816 63.1633 140.739 65.3424 140.779 67.6256C140.818 69.9088 139.971 72.1184 138.415 73.79Z" fill="#169C00"/>
</g>
</g>
<defs>
<clipPath id="clip0_336_108">
<rect width="188" height="188" rx="94" fill="white"/>
</clipPath>
</defs>
</svg>
