<svg width="36" height="36" viewBox="0 0 36 36" fill="none" xmlns="http://www.w3.org/2000/svg">
<g id="material-symbols-light:arrow-circle-up" clip-path="url(#clip0_353_181)">
<path id="Vector" d="M24.8686 17.0417L24.8686 18.9967L14.9002 18.9967L19.1619 23.0217L17.7657 24.3403L11.091 18.0364L17.7657 11.698L19.1619 13.0167L14.9002 17.0417L24.8686 17.0417ZM36.2638 18.0058C36.2638 15.6214 35.7848 13.3789 34.827 11.2782C33.8677 9.17886 32.5662 7.35228 30.9224 5.7985C29.2799 4.24472 27.3479 3.01486 25.1264 2.10892C22.9048 1.20297 20.5311 0.749999 18.0052 0.749999C15.4806 0.749999 13.1062 1.20233 10.8819 2.107C8.65905 3.01294 6.72502 4.24217 5.07984 5.79467C3.43467 7.34589 2.13246 9.17056 1.17323 11.2687C0.213993 13.3668 -0.265624 15.6086 -0.265624 17.9943C-0.265624 20.3786 0.213317 22.6211 1.1712 24.7218C2.13043 26.8211 3.43196 28.6477 5.07579 30.2015C6.71826 31.7553 8.65026 32.9851 10.8718 33.8911C13.0933 34.797 15.4671 35.25 17.993 35.25C20.5176 35.25 22.892 34.7977 25.1162 33.893C27.3391 32.9871 29.2731 31.7578 30.9183 30.2053C32.5635 28.6541 33.8657 26.8294 34.8249 24.7313C35.7842 22.6332 36.2638 20.3914 36.2638 18.0058Z" fill="#1D63B7"/>
</g>
<defs>
<clipPath id="clip0_353_181">
<rect width="36" height="36" fill="white" transform="matrix(4.37114e-08 1 1 -4.37114e-08 0 0)"/>
</clipPath>
</defs>
</svg>
