<svg width="42" height="42" viewBox="0 0 42 42" fill="none" xmlns="http://www.w3.org/2000/svg">
<g id="uim:calender">
<path id="Vector" opacity="0.5" d="M38.5 17.5H3.5V33.25C3.5 34.6424 4.05312 35.9777 5.03769 36.9623C6.02226 37.9469 7.35761 38.5 8.75 38.5H33.25C34.6424 38.5 35.9777 37.9469 36.9623 36.9623C37.9469 35.9777 38.5 34.6424 38.5 33.25V17.5ZM12.25 14C11.7859 14 11.3408 13.8156 11.0126 13.4874C10.6844 13.1592 10.5 12.7141 10.5 12.25V5.25C10.5 4.78587 10.6844 4.34075 11.0126 4.01256C11.3408 3.68437 11.7859 3.5 12.25 3.5C12.7141 3.5 13.1592 3.68437 13.4874 4.01256C13.8156 4.34075 14 4.78587 14 5.25V12.25C14 12.7141 13.8156 13.1592 13.4874 13.4874C13.1592 13.8156 12.7141 14 12.25 14ZM29.75 14C29.2859 14 28.8408 13.8156 28.5126 13.4874C28.1844 13.1592 28 12.7141 28 12.25V5.25C28 4.78587 28.1844 4.34075 28.5126 4.01256C28.8408 3.68437 29.2859 3.5 29.75 3.5C30.2141 3.5 30.6593 3.68437 30.9874 4.01256C31.3156 4.34075 31.5 4.78587 31.5 5.25V12.25C31.5 12.7141 31.3156 13.1592 30.9874 13.4874C30.6593 13.8156 30.2141 14 29.75 14Z" fill="black" fill-opacity="0.6"/>
<path id="Vector_2" d="M33.25 7H31.5V12.25C31.5 12.7141 31.3156 13.1592 30.9874 13.4874C30.6593 13.8156 30.2141 14 29.75 14C29.2859 14 28.8408 13.8156 28.5126 13.4874C28.1844 13.1592 28 12.7141 28 12.25V7H14V12.25C14 12.7141 13.8156 13.1592 13.4874 13.4874C13.1592 13.8156 12.7141 14 12.25 14C11.7859 14 11.3408 13.8156 11.0126 13.4874C10.6844 13.1592 10.5 12.7141 10.5 12.25V7H8.75C7.35761 7 6.02226 7.55312 5.03769 8.53769C4.05312 9.52226 3.5 10.8576 3.5 12.25V17.5H38.5V12.25C38.5 10.8576 37.9469 9.52226 36.9623 8.53769C35.9777 7.55312 34.6424 7 33.25 7Z" fill="black" fill-opacity="0.6"/>
</g>
</svg>
